<svg width="128" height="96" viewBox="0 0 128 96" fill="none" xmlns="http://www.w3.org/2000/svg">
    <path opacity="0.2" d="M105.629 38.1999L107.171 37.7999C107.457 37.7427 107.743 37.457 107.8 37.1713L108.2 35.6284C108.314 35.2284 108.657 34.9999 109 34.9999C109.4 34.9999 109.743 35.2856 109.8 35.6284L110.2 37.1713C110.257 37.457 110.543 37.7427 110.829 37.7999L112.371 38.1999C112.771 38.3142 113 38.657 113 38.9999C113 39.3999 112.714 39.7427 112.371 39.7999L110.829 40.1999C110.543 40.257 110.257 40.5427 110.2 40.8284L109.8 42.3713C109.686 42.7713 109.343 42.9999 109 42.9999C108.6 42.9999 108.257 42.7142 108.2 42.3713L107.8 40.8284C107.743 40.5427 107.457 40.257 107.171 40.1999L105.629 39.7999C105.229 39.6856 105 39.3427 105 38.9999C105 38.5999 105.286 38.257 105.629 38.1999Z" fill="#888888"/>
    <path opacity="0.2" d="M15.9428 31.7999L18.2571 31.1999C18.6857 31.1142 19.1143 30.6856 19.2 30.257L19.8 27.9427C19.9714 27.3427 20.4857 26.9999 21 26.9999C21.6 26.9999 22.1143 27.4284 22.2 27.9427L22.8 30.257C22.8857 30.6856 23.3143 31.1142 23.7429 31.1999L26.0572 31.7999C26.6572 31.9713 27 32.4856 27 32.9999C27 33.5999 26.5714 34.1142 26.0572 34.1999L23.7429 34.7999C23.3143 34.8856 22.8857 35.3142 22.8 35.7427L22.2 38.057C22.0286 38.657 21.5143 38.9999 21 38.9999C20.4 38.9999 19.8857 38.5713 19.8 38.057L19.2 35.7427C19.1143 35.3142 18.6857 34.8856 18.2571 34.7999L15.9428 34.1999C15.3428 34.0285 15 33.5142 15 32.9999C15 32.3999 15.4286 31.8856 15.9428 31.7999Z" fill="#888888"/>
    <path opacity="0.2" d="M0.628557 53.1999L2.17142 52.7999C2.45714 52.7427 2.74287 52.457 2.80001 52.1713L3.19999 50.6284C3.31427 50.2284 3.65714 49.9999 4 49.9999C4.4 49.9999 4.74287 50.2856 4.80001 50.6284L5.19999 52.1713C5.25713 52.457 5.54286 52.7427 5.82858 52.7999L7.37144 53.1999C7.77144 53.3142 8 53.657 8 53.9999C8 54.3999 7.7143 54.7427 7.37144 54.7999L5.82858 55.1999C5.54286 55.257 5.25713 55.5427 5.19999 55.8284L4.80001 57.3713C4.68573 57.7713 4.34286 57.9999 4 57.9999C3.6 57.9999 3.25713 57.7142 3.19999 57.3713L2.80001 55.8284C2.74287 55.5427 2.45714 55.257 2.17142 55.1999L0.628557 54.7999C0.228557 54.6856 0 54.3427 0 53.9999C0 53.5999 0.2857 53.257 0.628557 53.1999Z" fill="#888888"/>
    <path opacity="0.2" d="M126.5 51.9999C125.675 51.9999 125 51.3249 125 50.4999C125 49.6749 125.675 48.9999 126.5 48.9999C127.325 48.9999 128 49.6749 128 50.4999C128 51.3249 127.325 51.9999 126.5 51.9999Z" fill="#888888"/>
    <path opacity="0.2" d="M23 69.9999C21.9 69.9999 21 69.0999 21 67.9999C21 66.8999 21.9 65.9999 23 65.9999C24.1 65.9999 25 66.8999 25 67.9999C25 69.0999 24.1 69.9999 23 69.9999Z" fill="#888888"/>
    <path d="M87 51C75.9543 51 67 59.9543 67 71C67 72.372 66.0959 73.5816 64.775 73.9528C57.5577 75.9811 49.5325 77.8578 43.634 79.1637C43.3097 79.2355 42.9975 79.255 42.7018 79.23H38V75H40.3763C40.4903 74.7759 40.637 74.5576 40.8188 74.3498L48.0986 66.0301C41.3407 60.9038 37 52.9413 37 44C37 30.5221 46.8628 19.2684 60 16.6V16H67V16.0163C82.5532 16.5252 95 28.8592 95 44C95 45.0925 94.9352 46.1703 94.8091 47.2302C94.5415 49.4797 92.5101 51 90.2446 51H87Z" fill="#876ECB"/>
    <path d="M87 51C75.7517 51 67.3693 60.1801 67.0119 71.0397C66.9977 71.4704 66.7251 71.854 66.3153 71.9872C57.8718 74.731 46.4071 77.4428 38.6346 79.1636C35.8362 79.7832 33.9315 76.5069 35.819 74.3498L40.98 68.4515C42.1254 67.1425 41.9089 65.1461 40.6486 63.9473C35.3098 58.869 32 51.8077 32 44.0001C32 28.5361 44.9837 16.0001 61 16.0001C77.0163 16.0001 90 28.5361 90 44.0001C90 46.4171 89.6828 48.7627 89.0864 51H87Z" fill="#C7B9EE"/>
    <path fill-rule="evenodd" clip-rule="evenodd" d="M52 44C52 46.7614 49.7614 49 47 49C44.2386 49 42 46.7614 42 44C42 41.2386 44.2386 39 47 39C49.7614 39 52 41.2386 52 44ZM66 44C66 46.7614 63.7614 49 61 49C58.2386 49 56 46.7614 56 44C56 41.2386 58.2386 39 61 39C63.7614 39 66 41.2386 66 44ZM75 49C77.7614 49 80 46.7614 80 44C80 41.2386 77.7614 39 75 39C72.2386 39 70 41.2386 70 44C70 46.7614 72.2386 49 75 49Z" fill="white"/>
    <path d="M108.501 59C108.799 59 109.096 59.12 109.324 59.3539C109.778 59.8219 109.778 60.5837 109.324 61.0517L106.991 63.4512C106.536 63.9192 105.796 63.9192 105.341 63.4512C104.886 62.9833 104.886 62.2215 105.341 61.7535L107.673 59.3539C107.901 59.12 108.198 59 108.496 59H108.501Z" fill="#CCCCCC"/>
    <path d="M107.335 69.7982H110.834C111.475 69.7982 112 70.3381 112 70.998C112 71.6579 111.475 72.1978 110.834 72.1978H107.335C106.694 72.1978 106.169 71.6579 106.169 70.998C106.169 70.3381 106.694 69.7982 107.335 69.7982Z" fill="#CCCCCC"/>
    <path d="M105.353 78.5518C105.58 78.3178 105.878 78.1978 106.175 78.1978H106.181C106.478 78.1978 106.776 78.3178 107.003 78.5518L109.336 80.9513C109.79 81.4193 109.79 82.1811 109.336 82.6491C108.881 83.117 108.14 83.117 107.685 82.6491L105.353 80.2495C104.898 79.7815 104.898 79.0197 105.353 78.5518Z" fill="#CCCCCC"/>
    <rect x="71" y="55" width="32" height="32" rx="16" fill="#DE5833"/>
    <path fill-rule="evenodd" clip-rule="evenodd" d="M86.9997 57.0442C79.2922 57.0442 73.0439 63.2924 73.0439 71C73.0439 78.7075 79.2922 84.9558 86.9997 84.9558C94.7073 84.9558 100.956 78.7075 100.956 71C100.956 63.2924 94.7073 57.0442 86.9997 57.0442ZM74.9557 71C74.9557 64.3482 80.348 58.9559 86.9997 58.9559C93.6515 58.9559 99.0438 64.3482 99.0438 71C99.0438 76.8923 94.8124 81.7964 89.2224 82.8393C87.7697 79.5036 86.256 75.5091 87.7374 75.0676C85.974 71.8884 86.3305 69.8 89.9905 70.4436L89.9961 70.4443C90.4061 70.4909 90.7171 70.5263 90.8144 70.4644C91.3099 70.149 91.0025 63.2224 86.6996 62.2816C82.7398 57.3826 78.9708 62.9704 80.8826 62.5881C82.412 62.2057 83.5477 62.5587 83.4951 62.5739C76.7399 63.4256 79.8809 74.0685 81.6146 79.943C81.8531 80.7511 82.0649 81.4689 82.2207 82.0586C77.9464 80.209 74.9557 75.9537 74.9557 71Z" fill="white"/>
    <path d="M92.2901 81.0891C92.2475 81.3637 92.1529 81.5467 91.9845 81.5723C91.6651 81.6211 90.2366 81.2941 89.4247 80.9854C89.3324 81.41 87.1561 81.8121 86.8115 81.2417C86.0218 81.9244 84.5088 82.9146 84.1924 82.7071C83.5866 82.3106 83.0168 79.2564 83.4728 78.6109C84.1654 77.9812 85.6215 78.6664 86.6432 79.0282C86.9895 78.4425 88.6667 78.2204 89.0148 78.7012C89.9322 78.0038 91.4632 77.0203 91.6124 77.1997C92.3566 78.0965 92.4507 80.2307 92.2895 81.0897L92.2901 81.0891Z" fill="#4CBA3C"/>
    <path fill-rule="evenodd" clip-rule="evenodd" d="M84.5294 71.8694C84.8415 69.6541 89.0264 70.3472 90.8977 70.0983C92.2615 69.9402 93.2736 69.6047 93.9477 69.3429C95.4954 68.7072 95.7591 69.3381 95.0023 70.3283C92.8655 72.8614 88.1132 71.0177 87.2623 72.3276C87.0137 72.7156 87.206 73.629 89.1606 73.9169C91.8019 74.3049 93.9716 73.449 94.2395 73.9663C93.6373 76.7313 83.6096 75.79 84.5282 71.87L84.5294 71.8694Z" fill="#FFCC33"/>
    <path d="M89.8713 65.4794C89.5944 64.8797 88.1713 64.884 87.8993 65.4563C87.8745 65.5744 87.9735 65.5432 88.1624 65.4838C88.4932 65.3797 89.0997 65.1888 89.7982 65.5624C89.8533 65.5862 89.9066 65.5289 89.8713 65.4794Z" fill="#14307E"/>
    <path d="M82.9171 65.6234C82.6529 65.6043 82.2239 65.5734 81.8694 65.7704C81.3493 65.9918 81.1815 66.2304 81.0809 66.3939C81.0437 66.4543 80.8999 66.4482 80.8999 66.3768C80.9353 65.4226 82.5531 64.9626 83.1415 65.5556C83.2129 65.6447 83.108 65.6371 82.9171 65.6234Z" fill="#14307E"/>
    <path d="M89.3644 68.8222C88.2757 68.8167 88.2757 67.1383 89.3644 67.1328C90.4532 67.1383 90.4532 68.8167 89.3644 68.8222Z" fill="#14307E"/>
    <path d="M83.8471 68.5619C83.8255 69.8565 81.9278 69.8565 81.9062 68.5619C81.9122 67.2733 83.8411 67.2739 83.8471 68.5619Z" fill="#14307E"/>
</svg>
