<svg fill="none" viewBox="0 0 128 96" xmlns="http://www.w3.org/2000/svg">
  <path fill="#888" d="m15.943 27.8 2.314-.6c.429-.086.857-.514.943-.943l.6-2.314c.171-.6.686-.943 1.2-.943.6 0 1.114.429 1.2.943l.6 2.314c.086.429.514.857.943.943l2.314.6c.6.171.943.686.943 1.2 0 .6-.429 1.114-.943 1.2l-2.314.6c-.429.086-.857.514-.943.943l-.6 2.314c-.171.6-.686.943-1.2.943-.6 0-1.114-.429-1.2-.943l-.6-2.314c-.086-.429-.514-.857-.943-.943l-2.314-.6c-.6-.171-.943-.686-.943-1.2 0-.6.428-1.114.943-1.2m89.686 6.4 1.542-.4a.88.88 0 0 0 .629-.629l.4-1.542A.84.84 0 0 1 109 31c.4 0 .743.286.8.629l.4 1.542a.88.88 0 0 0 .629.629l1.542.4c.4.114.629.457.629.8 0 .4-.286.743-.629.8l-1.542.4a.88.88 0 0 0-.629.629l-.4 1.542a.84.84 0 0 1-.8.629c-.4 0-.743-.286-.8-.629l-.4-1.542a.88.88 0 0 0-.629-.629l-1.542-.4A.84.84 0 0 1 105 35c0-.4.286-.743.629-.8M2.171 48.8l-1.542.4c-.343.057-.629.4-.629.8 0 .343.229.686.629.8l1.542.4a.88.88 0 0 1 .629.629l.4 1.542c.057.343.4.629.8.629a.84.84 0 0 0 .8-.629l.4-1.542a.88.88 0 0 1 .629-.629l1.542-.4c.343-.057.629-.4.629-.8a.84.84 0 0 0-.629-.8l-1.542-.4a.88.88 0 0 1-.629-.629l-.4-1.542C4.743 46.286 4.4 46 4 46a.84.84 0 0 0-.8.629l-.4 1.542a.88.88 0 0 1-.629.629M126.5 48c-.825 0-1.5-.675-1.5-1.5s.675-1.5 1.5-1.5 1.5.675 1.5 1.5-.675 1.5-1.5 1.5M21 64c0 1.1.9 2 2 2s2-.9 2-2-.9-2-2-2-2 .9-2 2" opacity=".2"/>
  <path fill="#CCC" d="M84 12H44a9 9 0 0 0-9 9v42a9 9 0 0 0 9 9h40a9 9 0 0 0 9-9V21a9 9 0 0 0-9-9"/>
  <path fill="#F2F2F2" d="M88 40H40V21.182c0-2.3 1.878-4.182 4.174-4.182h39.652C86.122 17 88 18.882 88 21.182z"/>
  <path fill="#fff" d="M40 44h48v18.818c0 2.3-1.878 4.182-4.174 4.182H44.174C41.878 67 40 65.118 40 62.818z"/>
  <path fill="#ADC2FC" d="M71.984 44h8.008c-.264 8.329-7.099 15-15.492 15s-15.228-6.671-15.492-15h8.008a7.5 7.5 0 0 0 14.968 0"/>
  <path fill="#7295F6" d="M49.008 44a16 16 0 0 1-.008-.5v-4C49 30.94 55.94 24 64.5 24S80 30.94 80 39.5v4q0 .25-.008.5h-8.008q.016-.248.016-.5v-4a7.5 7.5 0 0 0-15 0v4q0 .252.016.5z"/>
  <path fill="#21C000" d="M90 86c11.046 0 20-8.954 20-20s-8.954-20-20-20-20 8.954-20 20 8.954 20 20 20"/>
  <path fill="#fff" fill-rule="evenodd" d="M99.914 59.586a2 2 0 0 1 0 2.828l-12 12a2 2 0 0 1-2.828 0l-5-5a2 2 0 1 1 2.828-2.828l3.586 3.586 10.586-10.586a2 2 0 0 1 2.828 0" clip-rule="evenodd"/>
</svg>
