<svg fill="none" viewBox="0 0 128 96" xmlns="http://www.w3.org/2000/svg">
  <path fill="#888" d="m112.371 39.8-1.542.4a.875.875 0 0 0-.629.628l-.4 1.543a.84.84 0 0 1-.8.629c-.4 0-.743-.286-.8-.629l-.4-1.543a.875.875 0 0 0-.629-.628l-1.542-.4A.842.842 0 0 1 105 39c0-.4.286-.743.629-.8l1.542-.4a.875.875 0 0 0 .629-.629l.4-1.543A.84.84 0 0 1 109 35c.4 0 .743.286.8.628l.4 1.543a.875.875 0 0 0 .629.629l1.542.4c.4.114.629.457.629.8 0 .4-.286.743-.629.8Zm-86.314-5.6-2.314.6c-.429.086-.857.514-.943.943l-.6 2.314c-.171.6-.686.943-1.2.943-.6 0-1.114-.429-1.2-.943l-.6-2.314c-.086-.429-.514-.857-.943-.943l-2.314-.6c-.6-.172-.943-.686-.943-1.2 0-.6.429-1.114.943-1.2l2.314-.6c.429-.086.857-.514.943-.943l.6-2.314c.171-.6.686-.943 1.2-.943.6 0 1.114.428 1.2.943l.6 2.314c.086.429.514.857.943.943l2.314.6c.6.171.943.686.943 1.2 0 .6-.429 1.114-.943 1.2ZM7.371 54.8l-1.542.4a.875.875 0 0 0-.629.628l-.4 1.543A.841.841 0 0 1 4 58c-.4 0-.743-.286-.8-.629l-.4-1.543a.875.875 0 0 0-.629-.628L.63 54.8A.841.841 0 0 1 0 54c0-.4.286-.743.629-.8l1.542-.4a.876.876 0 0 0 .629-.629l.4-1.543A.841.841 0 0 1 4 50c.4 0 .743.286.8.628l.4 1.543a.876.876 0 0 0 .629.629l1.542.4c.4.114.629.457.629.8 0 .4-.286.743-.629.8ZM126.5 52c-.825 0-1.5-.675-1.5-1.5s.675-1.5 1.5-1.5 1.5.675 1.5 1.5-.675 1.5-1.5 1.5ZM23 70c-1.1 0-2-.9-2-2s.9-2 2-2 2 .9 2 2-.9 2-2 2Z" opacity=".2"/>
  <path fill="#999" d="M73.936 55.856A19.988 19.988 0 0 1 80 52.261V33c0-9.389-7.611-17-17-17s-17 7.611-17 17v16a3 3 0 1 0 6 0V33c0-6.075 4.925-11 11-11s11 4.925 11 11v21.672c0 .4-.023.795-.064 1.184ZM63 71.672a17.01 17.01 0 0 0 4-.475V71c0-2.309.392-4.526 1.111-6.589A10.947 10.947 0 0 1 63 65.671h-1.5a9.5 9.5 0 0 1-9.5-9.5h-6c0 8.561 6.94 15.5 15.5 15.5H63Z"/>
  <path fill="url(#Lock-Check-128_svg__a)" d="M67 71c0-11.046 8.954-20 20-20a3 3 0 0 0 3-3v-1a7 7 0 0 0-7-7H65v37h2v-6Z"/>
  <path fill="#CCC" d="M67 71c0-10.71 8.419-19.454 19-19.975V46a6 6 0 0 0-6-6H62v40h2a3 3 0 0 0 3-3v-6Z"/>
  <path fill="url(#Lock-Check-128_svg__b)" d="M67 71c0-9.32 6.374-17.149 15-19.37V47a3 3 0 0 0-3-3H62v32h5v-5Z"/>
  <path fill="#DDD" d="M38 46a6 6 0 0 1 6-6h18v40H46a8 8 0 0 1-8-8V46Z"/>
  <path fill="url(#Lock-Check-128_svg__c)" d="M42 47a3 3 0 0 1 3-3h17v32H45a3 3 0 0 1-3-3V47Z"/>
  <path fill="#21C000" d="M87 87c8.837 0 16-7.163 16-16s-7.163-16-16-16-16 7.163-16 16 7.163 16 16 16Z"/>
  <path fill="#fff" d="M95.885 68.31c.52-.52.52-1.365 0-1.885l-1.859-1.86a1.333 1.333 0 0 0-1.885 0l-6.538 6.54c-.52.52-1.365.52-1.885 0l-1.86-1.86a1.333 1.333 0 0 0-1.884 0l-1.859 1.86c-.52.52-.52 1.364 0 1.884l5.603 5.603c.52.52 1.364.52 1.885 0L95.885 68.31Z"/>
  <path fill="#CCC" d="M108.501 59c.298 0 .595.12.823.354.454.468.454 1.23 0 1.698l-2.333 2.4a1.145 1.145 0 0 1-1.65 0 1.226 1.226 0 0 1 0-1.698l2.332-2.4c.228-.234.525-.354.823-.354h.005Zm-1.166 10.798h3.499c.641 0 1.166.54 1.166 1.2 0 .66-.525 1.2-1.166 1.2h-3.499c-.641 0-1.166-.54-1.166-1.2 0-.66.525-1.2 1.166-1.2Zm-1.982 8.754c.227-.234.525-.354.822-.354h.006c.297 0 .595.12.822.354l2.333 2.4c.454.467.454 1.23 0 1.697a1.146 1.146 0 0 1-1.651 0l-2.332-2.4a1.226 1.226 0 0 1 0-1.697Z"/>
  <defs>
    <linearGradient id="Lock-Check-128_svg__a" x1="77.5" x2="77.5" y1="40" y2="80" gradientUnits="userSpaceOnUse">
      <stop stop-color="#AAA"/>
      <stop offset="1" stop-color="#CCC"/>
    </linearGradient>
    <linearGradient id="Lock-Check-128_svg__b" x1="72" x2="58.198" y1="76" y2="45.258" gradientUnits="userSpaceOnUse">
      <stop stop-color="#E4E4E4"/>
      <stop offset="1" stop-color="#F2F2F2"/>
    </linearGradient>
    <linearGradient id="Lock-Check-128_svg__c" x1="52" x2="52" y1="76" y2="44" gradientUnits="userSpaceOnUse">
      <stop stop-color="#FEFEFE"/>
      <stop offset="1" stop-color="#ECECEC"/>
    </linearGradient>
  </defs>
</svg>
