<!-- TEMPORARY ICON -->
<svg width="128" height="96" viewBox="0 0 128 96" fill="none" xmlns="http://www.w3.org/2000/svg">
<path d="M83.4834 39.6306C84.1895 39.6573 84.8434 40.0401 85.2183 40.6632C85.8286 41.6869 85.5234 43.0221 84.5208 43.6541L84.1808 43.8677C83.1172 44.5354 81.8269 44.749 80.6063 44.4552C79.2375 44.117 77.7903 44.3573 76.5959 45.114L67.0842 51.1047L72.5002 54.5C72.6054 54.5666 72.8802 54.7417 73.2124 54.95C73.981 55.432 74.1078 56.7522 73.4837 57.4106C72.9075 58.0185 71.9782 58.1491 71.2818 57.6835C70.5156 57.1712 69.6505 56.5946 69.5002 56.5L63.9717 53.063L55.3057 58.5197C54.1026 59.2763 53.2482 60.4869 52.9256 61.8845C52.6379 63.1307 51.8794 64.2078 50.807 64.8843L50.467 65.0979C49.4644 65.7211 48.1567 65.4095 47.5377 64.3858C47.1628 63.7716 47.1192 62.9972 47.4156 62.3385C47.6597 61.7955 47.2848 61.1813 46.7094 61.1635C46.0032 61.1368 45.3494 60.754 44.9745 60.1309C44.3642 59.1072 44.6693 57.772 45.6719 57.14L46.012 56.9263C47.0756 56.2587 48.3659 56.0451 49.5865 56.3388C50.9553 56.6771 52.4025 56.4367 53.5969 55.6801L54.7826 54.9324L60.868 51.1047L51.3563 45.114C50.1619 44.3573 48.7146 44.1259 47.3459 44.4552C46.1253 44.749 44.8437 44.5443 43.7713 43.8677L43.4313 43.6541C42.4287 43.0221 42.1149 41.6869 42.7339 40.6632C43.1088 40.0401 43.7539 39.6573 44.4688 39.6306C45.0442 39.6128 45.4191 38.9897 45.175 38.4556C44.8786 37.7969 44.9222 37.0313 45.2971 36.4082C45.9161 35.3846 47.2238 35.0641 48.2264 35.6961L48.5664 35.9097C49.6301 36.5863 50.3973 37.6634 50.685 38.9096C51.0076 40.3071 51.8707 41.5177 53.0651 42.2744L63.9804 49.1464L74.8871 42.2744C76.0902 41.5177 76.9446 40.3071 77.2672 38.9096C77.5549 37.6634 78.3134 36.5863 79.3857 35.9097L79.7258 35.6961C80.7284 35.073 82.0361 35.3846 82.6551 36.4082C83.03 37.0224 83.0736 37.7969 82.7772 38.4556C82.5331 38.9986 82.908 39.6128 83.4834 39.6306Z" fill="#CCCCCC"/>
<g opacity="0.2">
<path d="M15 31L20.3333 36.3333" stroke="#888888" stroke-width="2.66667" stroke-linecap="round"/>
<path d="M20.3333 31L14.9999 36.3333" stroke="#888888" stroke-width="2.66667" stroke-linecap="round"/>
</g>
<g opacity="0.2">
<path d="M4 53L8.19023 57.1902" stroke="#888888" stroke-width="2.66667" stroke-linecap="round"/>
<path d="M8.19019 52.9999L3.99995 57.1901" stroke="#888888" stroke-width="2.66667" stroke-linecap="round"/>
</g>
<g opacity="0.2">
<path d="M114 69L118.19 73.1902" stroke="#888888" stroke-width="2.66667" stroke-linecap="round"/>
<path d="M118.19 68.9999L114 73.1901" stroke="#888888" stroke-width="2.66667" stroke-linecap="round"/>
</g>
<g opacity="0.2">
<path d="M103 41L107.19 45.1902" stroke="#888888" stroke-width="2.66667" stroke-linecap="round"/>
<path d="M107.19 40.9999L103 45.1901" stroke="#888888" stroke-width="2.66667" stroke-linecap="round"/>
</g>
<path d="M74.4133 58.1301C75.2549 57.333 75.0497 56.0349 74.0378 55.4695C73.6682 55.263 73.3429 55.0738 73.153 54.9506L67.0763 51.1229L75.4023 45.8799L76.588 45.1322C76.9542 44.9008 77.3465 44.7227 77.7563 44.5892C77.4947 43.254 77.0326 41.9899 76.4136 40.8149C76.0039 41.4024 75.4895 41.9009 74.8792 42.2837L73.6935 43.0314L63.9726 49.1557L54.2429 43.0314L53.0572 42.2837C52.4469 41.9009 51.9238 41.3935 51.5228 40.8149C50.9038 41.981 50.4417 43.254 50.1802 44.5892C50.5812 44.7227 50.9735 44.9008 51.3484 45.1322L52.5341 45.8799L60.8601 51.1229L54.7747 54.9506L53.589 55.6983C53.4234 55.8052 53.249 55.8942 53.0747 55.9832C53.8157 56.8733 54.6701 57.6656 55.6117 58.351L56.4922 57.7991L63.9726 53.0902L71.4529 57.7991L72.3607 58.3315C73.032 58.7253 73.8482 58.6652 74.4133 58.1301Z" fill="#BCBCBC"/>
<path d="M65.5929 35.9453H62.3235C55.8196 35.9453 50.7543 42.2209 52.62 49.1641C53.0123 50.6329 53.8319 51.9503 54.8868 53.0274L57.0838 55.2706C57.5808 55.778 57.8597 56.4634 57.8597 57.1844V58.4841C57.8597 59.2585 58.4787 59.8905 59.2372 59.8905C59.5424 59.8905 59.8214 59.7125 59.9521 59.4365C60.2486 58.8312 61.0942 58.8312 61.3819 59.4365C61.5214 59.7125 61.7917 59.8905 62.0968 59.8905H62.5153C62.8205 59.8905 63.0995 59.7125 63.2302 59.4365C63.5267 58.8312 64.3723 58.8312 64.66 59.4365C64.7995 59.7125 65.0698 59.8905 65.3749 59.8905H65.7934C66.0986 59.8905 66.3775 59.7125 66.5083 59.4365C66.8047 58.8312 67.6504 58.8312 67.9381 59.4365C68.0776 59.7125 68.3479 59.8905 68.653 59.8905C69.4115 59.8905 70.0305 59.2585 70.0305 58.4841V57.1844C70.0305 56.4634 70.3095 55.778 70.8065 55.2706L73.0035 53.0274C74.0584 51.9503 74.8692 50.6329 75.2702 49.1641C77.136 42.2209 72.0706 35.9453 65.5667 35.9453H65.5929Z" fill="#CCCCCC"/>
<path fill-rule="evenodd" clip-rule="evenodd" d="M68.1731 51.5143C69.2083 51.5143 70.0476 50.6575 70.0476 49.6005C70.0476 48.5435 69.2083 47.6866 68.1731 47.6866C67.1379 47.6866 66.2987 48.5435 66.2987 49.6005C66.2987 50.6575 67.1379 51.5143 68.1731 51.5143ZM59.7341 51.5144C60.7693 51.5144 61.6085 50.6575 61.6085 49.6006C61.6085 48.5436 60.7693 47.6867 59.7341 47.6867C58.6988 47.6867 57.8596 48.5436 57.8596 49.6006C57.8596 50.6575 58.6988 51.5144 59.7341 51.5144ZM65.6104 53.4548L64.4247 51.7546H64.4073C64.1806 51.4253 63.7011 51.4253 63.4744 51.7546L62.2887 53.4548C62.0185 53.8376 62.2887 54.3806 62.7595 54.3806H65.1396C65.6104 54.3806 65.8807 53.8465 65.6104 53.4548Z" fill="#666666"/>
<path d="M54.4342 51.7901C52.7603 44.9537 57.782 38.8205 64.1987 38.8205H67.4681C70.3626 38.8205 72.9694 40.0667 74.8089 42.0607C73.2396 38.4556 69.7 35.9453 65.5937 35.9453H62.3243C55.8989 35.9453 50.8771 42.0696 52.5598 48.9149C52.9346 50.437 53.7367 51.8168 54.8091 52.9473C54.6609 52.5734 54.5301 52.1907 54.4342 51.7901Z" fill="#BCBCBC"/>
<path d="M35.9196 20C33.7549 20 32 21.7549 32 23.9196V72.0804C32 74.2451 33.7549 76 35.9196 76H67.0201C67.5613 76 68 75.5613 68 75.0201C68 74.4789 67.5613 74.0402 67.0201 74.0402H35.9196C34.8372 74.0402 33.9598 73.1628 33.9598 72.0804V27.8392H94.0402V52.5201C94.0402 53.0613 94.4789 53.5 95.0201 53.5C95.5613 53.5 96 53.0613 96 52.5201V23.9196C96 21.7549 94.2451 20 92.0804 20H35.9196Z" fill="#DDDDDD"/>
<path fill-rule="evenodd" clip-rule="evenodd" d="M39.2852 23.7911C39.2852 22.7442 38.4684 21.8955 37.4608 21.8955C36.4533 21.8955 35.6365 22.7442 35.6365 23.7911C35.6365 24.838 36.4533 25.6867 37.4608 25.6867C38.4684 25.6867 39.2852 24.838 39.2852 23.7911ZM44.7579 23.7911C44.7579 22.7442 43.9411 21.8955 42.9336 21.8955C41.926 21.8955 41.1092 22.7442 41.1092 23.7911C41.1092 24.838 41.926 25.6867 42.9336 25.6867C43.9411 25.6867 44.7579 24.838 44.7579 23.7911ZM48.4069 21.8955C49.4144 21.8955 50.2312 22.7442 50.2312 23.7911C50.2312 24.838 49.4144 25.6867 48.4069 25.6867C47.3993 25.6867 46.5825 24.838 46.5825 23.7911C46.5825 22.7442 47.3993 21.8955 48.4069 21.8955Z" fill="black" fill-opacity="0.18"/>
<circle cx="87.1684" cy="71.1684" r="16.1684" fill="#EB102D"/>
<circle cx="87.5052" cy="78.1997" r="2.10526" fill="white"/>
<path d="M86.9137 72.2294C86.2215 72.2294 85.6063 71.7493 85.5294 71.132L84.6066 62.5581C84.5297 61.8722 85.1449 61.2549 85.9908 61.2549H87.9134C88.6824 61.2549 89.3745 61.8722 89.2976 62.5581L88.3748 71.132C88.221 71.7493 87.6058 72.2294 86.9137 72.2294Z" fill="white"/>
</svg>
