<svg fill="none" viewBox="0 0 128 96" xmlns="http://www.w3.org/2000/svg">
  <path fill="#888" d="m112.371 39.68-1.542.4a.88.88 0 0 0-.629.628l-.4 1.543a.84.84 0 0 1-.8.629c-.4 0-.743-.286-.8-.629l-.4-1.543a.88.88 0 0 0-.629-.628l-1.542-.4a.84.84 0 0 1-.629-.8c0-.4.286-.743.629-.8l1.542-.4a.88.88 0 0 0 .629-.629l.4-1.543a.84.84 0 0 1 .8-.628c.4 0 .743.285.8.628l.4 1.543a.88.88 0 0 0 .629.629l1.542.4c.4.114.629.457.629.8 0 .4-.286.743-.629.8m-86.314-5.6-2.314.6c-.429.086-.857.514-.943.943l-.6 2.314c-.171.6-.686.943-1.2.943-.6 0-1.114-.429-1.2-.943l-.6-2.314c-.086-.429-.514-.857-.943-.943l-2.314-.6c-.6-.172-.943-.686-.943-1.2 0-.6.429-1.115.943-1.2l2.314-.6c.429-.086.857-.514.943-.943l.6-2.314c.171-.6.686-.943 1.2-.943.6 0 1.114.428 1.2.943l.6 2.314c.086.428.514.857.943.943l2.314.6c.6.171.943.685.943 1.2 0 .6-.428 1.114-.943 1.2M7.371 54.68l-1.542.4a.88.88 0 0 0-.629.628l-.4 1.543a.84.84 0 0 1-.8.629c-.4 0-.743-.286-.8-.629l-.4-1.543a.88.88 0 0 0-.629-.628l-1.542-.4a.84.84 0 0 1-.629-.8c0-.4.286-.743.629-.8l1.542-.4a.88.88 0 0 0 .629-.629l.4-1.543a.84.84 0 0 1 .8-.628c.4 0 .743.285.8.628l.4 1.543a.88.88 0 0 0 .629.629l1.542.4a.84.84 0 0 1 .629.8c0 .4-.286.743-.629.8m119.129-2.8c-.825 0-1.5-.675-1.5-1.5s.675-1.5 1.5-1.5 1.5.675 1.5 1.5-.675 1.5-1.5 1.5M23 69.88c-1.1 0-2-.9-2-2s.9-2 2-2 2 .9 2 2-.9 2-2 2" opacity=".2"/>
  <path fill="url(#Shield-Alert-128_svg__a)" d="M91.175 50.88c2.392 0 4.488-1.694 4.676-4.08q.149-1.877.1-3.787l-.254-9.748C95.535 27.01 90.25 22.39 84.358 22.63H80l-1.066.693a3.94 3.94 0 0 1-1.693-.91l-.2-.196-2.374-2.502a11.87 11.87 0 0 0-8.663-3.71L66 16h-3.523c-.124.59-.676 3.354-1.221 8H71.84l1.573 1.658.224.228a8.94 8.94 0 0 0 8.938 2.148l.278-.087 6.359 1.673a5.87 5.87 0 0 1 1.487 3.774l.253 9.749a31.2 31.2 0 0 1-.768 7.737h.99Z"/>
  <path fill="url(#Shield-Alert-128_svg__b)" d="M67 74.255V70.88c0-11.012 8.9-19.944 19.9-19.998L89 44.88l-1-16-6-4-8 1-12-7-12 7-11.5.5-3.5 5v20l9.5 17.5 17.5 8.5z"/>
  <path fill="url(#Shield-Alert-128_svg__c)" d="M62.104 76.941a3 3 0 0 0 1.304-.441L67 74.255V70.88c0-11.012 8.9-19.944 19.899-19.998l1.9-5.43c.132-.378.188-.779.163-1.179l-.87-13.91a3 3 0 0 0-1.329-2.308l-3.835-2.557a3 3 0 0 0-2.036-.48l-5.885.736a3 3 0 0 1-1.884-.386l-9.612-5.607a3 3 0 0 0-1.629-.405c-1.222 7.873-3.521 28.651.222 57.585"/>
  <path fill="url(#Shield-Alert-128_svg__d)" d="M55.941 78.42a12.4 12.4 0 0 0 7.441 1.286C65.676 79.387 67 77.147 67 74.83V73l-1.92.995a7.41 7.41 0 0 1-6.828-.01l-4.531-2.36a31.19 31.19 0 0 1-16.768-28.333l.213-9.834c.085-3.923 3.93-6.655 7.662-5.445a8.89 8.89 0 0 0 9.07-2.212l2.708-2.745.262-.252a6.913 6.913 0 0 1 9.672.35l2.373 2.503.224.227a8.94 8.94 0 0 0 8.938 2.149l.432-.136c3.752-1.177 7.59 1.564 7.692 5.496l.253 9.748.01.56a31.2 31.2 0 0 1-.79 7.223q.66-.044 1.328-.045h3.794c.458-2.352.688-4.768.668-7.218l-.01-.65-.255-9.748c-.189-7.252-7.266-12.309-14.187-10.137l-.432.136a3.94 3.94 0 0 1-3.837-.85l-.2-.197-2.374-2.502c-4.561-4.806-12.149-4.956-16.895-.39l-.224.221-2.71 2.745a3.89 3.89 0 0 1-3.968.968c-6.92-2.243-14.045 2.82-14.203 10.093L32 41.065v4.873A36.19 36.19 0 0 0 51.411 76.06z"/>
  <path fill="url(#Shield-Alert-128_svg__e)" d="M85.673 50.926q.658-.045 1.327-.046h3.794a36 36 0 0 0 .668-7.218l-.01-.65-.255-9.747c-.188-7.253-7.265-12.31-14.187-10.137l-.432.136a3.94 3.94 0 0 1-3.837-.85l-.2-.197-2.374-2.502a11.86 11.86 0 0 0-7.7-3.673c-.104.507-.439 2.2-.826 4.963a6.9 6.9 0 0 1 4.899 2.151l2.373 2.502.224.228a8.94 8.94 0 0 0 8.938 2.148l.432-.136c3.753-1.177 7.59 1.564 7.692 5.497l.253 9.748.01.56a31.2 31.2 0 0 1-.79 7.223Zm-23.185 28.87a12 12 0 0 0 1.517-.194c1.896-.362 2.995-2.21 2.995-4.14v-2.461l-1.92.994a7.4 7.4 0 0 1-3.242.824q.295 2.449.65 4.977"/>
  <circle cx="87" cy="71" r="16" fill="#EB102D"/>
  <circle cx="87" cy="77.8" r="2" fill="#fff"/>
  <path fill="#fff" d="M86.961 73.4c-.706 0-1.334-.49-1.412-1.12l-.942-8.75c-.079-.7.55-1.33 1.412-1.33h1.962c.785 0 1.492.63 1.413 1.33l-.942 8.75c-.157.63-.784 1.12-1.49 1.12Z"/>
  <path fill="#CCC" d="M108.501 59c.298 0 .595.12.823.354.454.468.454 1.23 0 1.698l-2.333 2.4a1.145 1.145 0 0 1-1.65 0 1.226 1.226 0 0 1 0-1.698l2.332-2.4c.228-.234.525-.354.823-.354zm-1.166 10.798h3.499c.641 0 1.166.54 1.166 1.2s-.525 1.2-1.166 1.2h-3.499c-.641 0-1.166-.54-1.166-1.2s.525-1.2 1.166-1.2m-1.982 8.754c.227-.234.525-.354.822-.354h.006c.297 0 .595.12.822.354l2.333 2.4c.454.467.454 1.23 0 1.697a1.146 1.146 0 0 1-1.651 0l-2.332-2.4a1.226 1.226 0 0 1 0-1.697"/>
  <defs>
    <linearGradient id="Shield-Alert-128_svg__a" x1="78.61" x2="78.61" y1="79.82" y2="16" gradientUnits="userSpaceOnUse">
      <stop stop-color="#999"/>
      <stop offset="1" stop-color="#AAA"/>
    </linearGradient>
    <linearGradient id="Shield-Alert-128_svg__b" x1="62" x2="62" y1="77.38" y2="18.88" gradientUnits="userSpaceOnUse">
      <stop stop-color="#fff"/>
      <stop offset="1" stop-color="#F2F2F2"/>
    </linearGradient>
    <linearGradient id="Shield-Alert-128_svg__c" x1="74.513" x2="74.513" y1="19.355" y2="76.941" gradientUnits="userSpaceOnUse">
      <stop stop-color="#F2F2F2"/>
      <stop offset="1" stop-color="#EEE"/>
    </linearGradient>
    <linearGradient id="Shield-Alert-128_svg__d" x1="61.732" x2="61.732" y1="79.824" y2="16.002" gradientUnits="userSpaceOnUse">
      <stop stop-color="#DDD"/>
      <stop offset=".461" stop-color="#DDD"/>
      <stop offset="1" stop-color="#DDD"/>
    </linearGradient>
    <linearGradient id="Shield-Alert-128_svg__e" x1="76.552" x2="76.552" y1="79.796" y2="16.042" gradientUnits="userSpaceOnUse">
      <stop stop-color="#CCC"/>
      <stop offset="1" stop-color="#CCC"/>
    </linearGradient>
  </defs>
</svg>
