<svg fill="none" viewBox="0 0 128 96" xmlns="http://www.w3.org/2000/svg">
  <path fill="#888" d="m112.371 39.8-1.542.4a.875.875 0 0 0-.629.628l-.4 1.543a.84.84 0 0 1-.8.629c-.4 0-.743-.286-.8-.629l-.4-1.543a.875.875 0 0 0-.629-.628l-1.542-.4A.842.842 0 0 1 105 39c0-.4.286-.743.629-.8l1.542-.4a.875.875 0 0 0 .629-.629l.4-1.543A.84.84 0 0 1 109 35c.4 0 .743.286.8.628l.4 1.543a.875.875 0 0 0 .629.629l1.542.4c.4.114.629.457.629.8 0 .4-.286.743-.629.8Zm-86.314-5.6-2.314.6c-.429.086-.857.514-.943.943l-.6 2.314c-.171.6-.686.943-1.2.943-.6 0-1.114-.429-1.2-.943l-.6-2.314c-.086-.429-.514-.857-.943-.943l-2.314-.6c-.6-.172-.943-.686-.943-1.2 0-.6.429-1.114.943-1.2l2.314-.6c.429-.086.857-.514.943-.943l.6-2.314c.171-.6.686-.943 1.2-.943.6 0 1.114.428 1.2.943l.6 2.314c.086.429.514.857.943.943l2.314.6c.6.171.943.686.943 1.2 0 .6-.428 1.114-.943 1.2ZM7.371 54.8l-1.542.4a.875.875 0 0 0-.629.628l-.4 1.543A.841.841 0 0 1 4 58c-.4 0-.743-.286-.8-.629l-.4-1.543a.875.875 0 0 0-.629-.628L.63 54.8A.841.841 0 0 1 0 54c0-.4.286-.743.629-.8l1.542-.4a.876.876 0 0 0 .629-.629l.4-1.543A.841.841 0 0 1 4 50c.4 0 .743.286.8.628l.4 1.543a.876.876 0 0 0 .629.629l1.542.4c.4.114.629.457.629.8 0 .4-.286.743-.629.8ZM126.5 52c-.825 0-1.5-.675-1.5-1.5s.675-1.5 1.5-1.5 1.5.675 1.5 1.5-.675 1.5-1.5 1.5ZM23 70c-1.1 0-2-.9-2-2s.9-2 2-2 2 .9 2 2-.9 2-2 2Z" opacity=".2"/>
  <path fill="#DDD" d="M36 48v24a8 8 0 0 0 8 8h20a3 3 0 0 0 3-3v-6c0-11.046 8.954-20 20-20h2a3 3 0 0 0 3-3"/>
  <path fill="#F5F5F5" d="M40 48v23a5 5 0 0 0 5 5h22v-5c0-11.046 8.954-20 20-20h1v-3H40Z"/>
  <path fill="#CCC" d="M36 24a8 8 0 0 1 8-8h40a8 8 0 0 1 8 8v24H36V24Z"/>
  <path fill="#E5E5E5" d="M40 25a5 5 0 0 1 5-5h38a5 5 0 0 1 5 5v23H40V25Z"/>
  <path fill="#557FF3" d="M64.5 28C55.94 28 49 34.94 49 43.5V48h8v-4.5a7.5 7.5 0 0 1 15 0V48h8v-4.5C80 34.94 73.06 28 64.5 28Z"/>
  <path fill="#8FABF9" d="M72 51.5a7.5 7.5 0 0 1-15 0V48h-8v3.5l.005.4C49.217 60.276 56.074 67 64.5 67c1.013 0 2.003-.099 2.962-.284 1.456-6.669 6.237-12.093 12.52-14.448.005-.123.01-.245.013-.368l.005-.4V48h-8v3.5Z"/>
  <path fill="#21C000" d="M87 87c8.837 0 16-7.163 16-16s-7.163-16-16-16-16 7.163-16 16 7.163 16 16 16Z"/>
  <path fill="#fff" d="M95.885 68.31c.52-.52.52-1.365 0-1.885l-1.859-1.86a1.333 1.333 0 0 0-1.885 0l-6.538 6.54c-.52.52-1.365.52-1.885 0l-1.86-1.86a1.333 1.333 0 0 0-1.884 0l-1.859 1.86c-.52.52-.52 1.364 0 1.884l5.603 5.603c.52.52 1.364.52 1.885 0L95.885 68.31Z"/>
  <path fill="#CCC" d="M108.501 59c.298 0 .595.12.823.354.454.468.454 1.23 0 1.698l-2.333 2.4a1.145 1.145 0 0 1-1.65 0 1.226 1.226 0 0 1 0-1.698l2.332-2.4c.228-.234.525-.354.823-.354h.005Zm-1.166 10.798h3.499c.641 0 1.166.54 1.166 1.2 0 .66-.525 1.2-1.166 1.2h-3.499c-.641 0-1.166-.54-1.166-1.2 0-.66.525-1.2 1.166-1.2Zm-1.982 8.754c.227-.234.525-.354.822-.354h.006c.297 0 .595.12.822.354l2.333 2.4c.454.467.454 1.23 0 1.697a1.146 1.146 0 0 1-1.651 0l-2.332-2.4a1.226 1.226 0 0 1 0-1.697Z"/>
</svg>
