<svg fill="none" viewBox="0 0 128 96" xmlns="http://www.w3.org/2000/svg">
  <path fill="#888" d="m112.371 39.8-1.542.4a.875.875 0 0 0-.629.628l-.4 1.543a.84.84 0 0 1-.8.629c-.4 0-.743-.286-.8-.629l-.4-1.543a.875.875 0 0 0-.629-.628l-1.542-.4A.842.842 0 0 1 105 39c0-.4.286-.743.629-.8l1.542-.4a.875.875 0 0 0 .629-.629l.4-1.543A.84.84 0 0 1 109 35c.4 0 .743.286.8.628l.4 1.543a.875.875 0 0 0 .629.629l1.542.4c.4.114.629.457.629.8 0 .4-.286.743-.629.8Zm-86.314-5.6-2.314.6c-.429.086-.857.514-.943.943l-.6 2.314c-.171.6-.686.943-1.2.943-.6 0-1.114-.429-1.2-.943l-.6-2.314c-.086-.429-.514-.857-.943-.943l-2.314-.6c-.6-.172-.943-.686-.943-1.2 0-.6.429-1.114.943-1.2l2.314-.6c.429-.086.857-.514.943-.943l.6-2.314c.171-.6.686-.943 1.2-.943.6 0 1.114.428 1.2.943l.6 2.314c.086.429.514.857.943.943l2.314.6c.6.171.943.686.943 1.2 0 .6-.429 1.114-.943 1.2ZM7.371 54.8l-1.542.4a.875.875 0 0 0-.629.628l-.4 1.543A.841.841 0 0 1 4 58c-.4 0-.743-.286-.8-.629l-.4-1.543a.875.875 0 0 0-.629-.628L.63 54.8A.841.841 0 0 1 0 54c0-.4.286-.743.629-.8l1.542-.4a.876.876 0 0 0 .629-.629l.4-1.543A.841.841 0 0 1 4 50c.4 0 .743.286.8.628l.4 1.543a.876.876 0 0 0 .629.629l1.542.4c.4.114.629.457.629.8 0 .4-.286.743-.629.8ZM126.5 52c-.825 0-1.5-.675-1.5-1.5s.675-1.5 1.5-1.5 1.5.675 1.5 1.5-.675 1.5-1.5 1.5ZM23 70c-1.1 0-2-.9-2-2s.9-2 2-2 2 .9 2 2-.9 2-2 2Z" opacity=".2"/>
  <path fill="#999" d="M54.753 66.717a16.95 16.95 0 0 0 13.218-1.887 20.044 20.044 0 0 1 7.64-10.271l5.657-21.112c2.43-9.07-2.952-18.392-12.02-20.822-9.07-2.43-18.391 2.953-20.821 12.022l-.13.482a3 3 0 1 0 5.796 1.553l.129-.483c1.572-5.868 7.604-9.35 13.473-7.778 5.867 1.573 9.35 7.605 7.778 13.473l-5.695 21.25c-1.572 5.868-7.604 9.35-13.472 7.778l-1.448-.389A9.5 9.5 0 0 1 48.14 48.9l-5.796-1.553c-2.215 8.269 2.692 16.768 10.96 18.983l1.45.388Z"/>
  <path fill="url(#Lock-Warning-128_svg__a)" d="M67 71c0-11.046 8.954-20 20-20a3 3 0 0 0 3-3v-1a7 7 0 0 0-7-7H65v36h2v-5Z"/>
  <path fill="#CCC" d="M67 71c0-10.71 8.419-19.454 19-19.975V46a6 6 0 0 0-6-6H62v40h2a3 3 0 0 0 3-3v-6Z"/>
  <path fill="url(#Lock-Warning-128_svg__b)" d="M67 71c0-9.32 6.374-17.149 15-19.37V47a3 3 0 0 0-3-3H62v32h5v-5Z"/>
  <path fill="#DDD" d="M38 46a6 6 0 0 1 6-6h18v40H46a8 8 0 0 1-8-8V46Z"/>
  <path fill="url(#Lock-Warning-128_svg__c)" d="M42 47a3 3 0 0 1 3-3h17v32H45a3 3 0 0 1-3-3V47Z"/>
  <circle cx="87" cy="71" r="16" fill="#EB102D"/>
  <circle cx="87" cy="77.8" r="2" fill="#fff"/>
  <path fill="#fff" d="M86.961 73.4c-.706 0-1.334-.49-1.412-1.12l-.942-8.75c-.079-.7.55-1.33 1.412-1.33h1.962c.785 0 1.492.63 1.413 1.33l-.942 8.75c-.157.63-.784 1.12-1.49 1.12Z"/>
  <path fill="#CCC" d="M108.501 59c.298 0 .595.12.823.354.454.468.454 1.23 0 1.698l-2.333 2.4a1.145 1.145 0 0 1-1.65 0 1.226 1.226 0 0 1 0-1.698l2.332-2.4c.228-.234.525-.354.823-.354h.005Zm-1.166 10.798h3.499c.641 0 1.166.54 1.166 1.2 0 .66-.525 1.2-1.166 1.2h-3.499c-.641 0-1.166-.54-1.166-1.2 0-.66.525-1.2 1.166-1.2Zm-1.982 8.754c.227-.234.525-.354.822-.354h.006c.297 0 .595.12.822.354l2.333 2.4c.454.467.454 1.23 0 1.697a1.146 1.146 0 0 1-1.651 0l-2.332-2.4a1.226 1.226 0 0 1 0-1.697Z"/>
  <defs>
    <linearGradient id="Lock-Warning-128_svg__a" x1="77.5" x2="77.5" y1="40" y2="80" gradientUnits="userSpaceOnUse">
      <stop stop-color="#AAA"/>
      <stop offset="1" stop-color="#CCC"/>
    </linearGradient>
    <linearGradient id="Lock-Warning-128_svg__b" x1="72" x2="58.198" y1="76" y2="45.258" gradientUnits="userSpaceOnUse">
      <stop stop-color="#E4E4E4"/>
      <stop offset="1" stop-color="#F2F2F2"/>
    </linearGradient>
    <linearGradient id="Lock-Warning-128_svg__c" x1="52" x2="52" y1="76" y2="44" gradientUnits="userSpaceOnUse">
      <stop stop-color="#FEFEFE"/>
      <stop offset="1" stop-color="#ECECEC"/>
    </linearGradient>
  </defs>
</svg>
