<svg fill="none" viewBox="0 0 128 96" xmlns="http://www.w3.org/2000/svg">
  <path fill="#888" d="m112.371 39.8-1.542.4a.875.875 0 0 0-.629.628l-.4 1.543a.84.84 0 0 1-.8.629c-.4 0-.743-.286-.8-.629l-.4-1.543a.875.875 0 0 0-.629-.628l-1.542-.4A.842.842 0 0 1 105 39c0-.4.286-.743.629-.8l1.542-.4a.875.875 0 0 0 .629-.629l.4-1.543A.84.84 0 0 1 109 35c.4 0 .743.286.8.628l.4 1.543a.875.875 0 0 0 .629.629l1.542.4c.4.114.629.457.629.8 0 .4-.286.743-.629.8Zm-86.314-5.6-2.314.6c-.429.086-.857.514-.943.943l-.6 2.314c-.171.6-.686.943-1.2.943-.6 0-1.114-.429-1.2-.943l-.6-2.314c-.086-.429-.514-.857-.943-.943l-2.314-.6c-.6-.172-.943-.686-.943-1.2 0-.6.429-1.114.943-1.2l2.314-.6c.429-.086.857-.514.943-.943l.6-2.314c.171-.6.686-.943 1.2-.943.6 0 1.114.428 1.2.943l.6 2.314c.086.429.514.857.943.943l2.314.6c.6.171.943.686.943 1.2 0 .6-.429 1.114-.943 1.2ZM7.371 54.8l-1.542.4a.875.875 0 0 0-.629.628l-.4 1.543A.841.841 0 0 1 4 58c-.4 0-.743-.286-.8-.629l-.4-1.543a.875.875 0 0 0-.629-.628L.63 54.8A.841.841 0 0 1 0 54c0-.4.286-.743.629-.8l1.542-.4a.876.876 0 0 0 .629-.629l.4-1.543A.841.841 0 0 1 4 50c.4 0 .743.286.8.628l.4 1.543a.876.876 0 0 0 .629.629l1.542.4c.4.114.629.457.629.8 0 .4-.286.743-.629.8ZM126.5 52c-.825 0-1.5-.675-1.5-1.5s.675-1.5 1.5-1.5 1.5.675 1.5 1.5-.675 1.5-1.5 1.5ZM23 70c-1.1 0-2-.9-2-2s.9-2 2-2 2 .9 2 2-.9 2-2 2Z" opacity=".2"/>
  <path fill="#999" d="M64 16a7 7 0 0 1 2 13.708V36h-4v-6.292A7.001 7.001 0 0 1 64 16Z"/>
  <path fill="#C3C3C3" d="M69.5 35a2.5 2.5 0 0 1 2.321 1.571l6.552 16.38a20.064 20.064 0 0 0-6.281 4.717L64 51.611l-8.59 6.43L64 61.93l7.28-3.296a19.908 19.908 0 0 0-4.024 9.16L64 66.322l-16.427 7.436-1.732 4.621a2.5 2.5 0 0 1-4.682-1.756l15-40 .075-.179A2.5 2.5 0 0 1 58.5 35h11ZM49.557 68.467l9.592-4.342-6.808-3.081-2.784 7.423Zm17.781-19.355 5.872 4.395-2.706-6.765-3.166 2.37Zm-12.023 4.001 5.346-4-3.004-2.249-2.342 6.25Zm3.806-10.15 4.88 3.651 4.965-3.716L67.808 40h-7.575l-1.112 2.963Z"/>
  <path fill="#ADC2FC" d="M31.737 12.302a2.001 2.001 0 0 1 3.785 1.23l-.053.198-.245.79a30 30 0 0 0 3.446 24.555 2 2 0 0 1-3.377 2.143 34 34 0 0 1-3.906-27.83l.277-.895.073-.191Zm62.079-1.093a2.001 2.001 0 0 1 2.447 1.093l.073.191.277.896a34.002 34.002 0 0 1-3.906 27.83 2 2 0 0 1-3.377-2.144 30.003 30.003 0 0 0 3.447-24.555l-.246-.79-.052-.197a2 2 0 0 1 1.337-2.324Z" opacity=".3"/>
  <path fill="#ADC2FC" d="M41.248 15.393a2 2 0 0 1 3.784 1.23l-.054.197-.163.527a20.002 20.002 0 0 0 2.298 16.37 2 2 0 0 1-3.377 2.143 24.002 24.002 0 0 1-2.758-19.644l.197-.632.073-.191ZM84.306 14.3a2 2 0 0 1 2.446 1.093l.073.191.196.632a24.002 24.002 0 0 1-2.757 19.644 2 2 0 0 1-3.377-2.143 20.003 20.003 0 0 0 2.297-16.37l-.163-.527-.053-.198a2 2 0 0 1 1.338-2.322Z" opacity=".6"/>
  <path fill="#ADC2FC" d="M49.734 18.364a2 2 0 0 1 3.858 1.04l-.054.197-.09.29a11.004 11.004 0 0 0 1.264 9.004 2 2 0 1 1-3.377 2.142 15 15 0 0 1-1.6-12.673Zm26.012-1.283a2 2 0 0 1 2.52 1.283 15.004 15.004 0 0 1-1.6 12.673 2 2 0 1 1-3.377-2.143 11.001 11.001 0 0 0 1.263-9.003l-.09-.29-.054-.198a2 2 0 0 1 1.338-2.322Z"/>
  <path fill="#EB102D" d="M103 71c0 8.837-7.163 16-16 16s-16-7.163-16-16 7.163-16 16-16 16 7.163 16 16Z"/>
  <path fill="#fff" d="M89 77.8a2 2 0 1 1-4 0 2 2 0 0 1 4 0Zm-2.039-4.4c-.706 0-1.334-.49-1.412-1.12l-.942-8.75c-.079-.7.55-1.33 1.412-1.33h1.962c.785 0 1.492.63 1.413 1.33l-.942 8.75c-.157.63-.784 1.12-1.49 1.12Z"/>
  <path fill="#CCC" d="M108.501 59c.298 0 .595.12.823.354.454.468.454 1.23 0 1.698l-2.333 2.4a1.145 1.145 0 0 1-1.65 0 1.226 1.226 0 0 1 0-1.698l2.332-2.4c.228-.234.525-.354.823-.354h.005Zm-1.166 10.798h3.499c.641 0 1.166.54 1.166 1.2 0 .66-.525 1.2-1.166 1.2h-3.499c-.641 0-1.166-.54-1.166-1.2 0-.66.525-1.2 1.166-1.2Zm-1.982 8.754c.227-.234.525-.354.822-.354h.006c.297 0 .595.12.822.354l2.333 2.4c.454.467.454 1.23 0 1.697a1.146 1.146 0 0 1-1.651 0l-2.332-2.4a1.226 1.226 0 0 1 0-1.697Z"/>
</svg>
