<svg fill="none" viewBox="0 0 128 96" xmlns="http://www.w3.org/2000/svg">
  <path fill="#888" d="m112.371 39.8-1.542.4a.875.875 0 0 0-.629.628l-.4 1.543a.84.84 0 0 1-.8.629c-.4 0-.743-.286-.8-.629l-.4-1.543a.875.875 0 0 0-.629-.628l-1.542-.4A.842.842 0 0 1 105 39c0-.4.286-.743.629-.8l1.542-.4a.875.875 0 0 0 .629-.629l.4-1.543A.84.84 0 0 1 109 35c.4 0 .743.286.8.628l.4 1.543a.875.875 0 0 0 .629.629l1.542.4c.4.114.629.457.629.8 0 .4-.286.743-.629.8Zm-86.314-5.6-2.314.6c-.429.086-.857.514-.943.943l-.6 2.314c-.171.6-.686.943-1.2.943-.6 0-1.114-.429-1.2-.943l-.6-2.314c-.086-.429-.514-.857-.943-.943l-2.314-.6c-.6-.172-.943-.686-.943-1.2 0-.6.429-1.114.943-1.2l2.314-.6c.429-.086.857-.514.943-.943l.6-2.314c.171-.6.686-.943 1.2-.943.6 0 1.114.428 1.2.943l.6 2.314c.086.429.514.857.943.943l2.314.6c.6.171.943.686.943 1.2 0 .6-.428 1.114-.943 1.2ZM7.371 54.8l-1.542.4a.875.875 0 0 0-.629.628l-.4 1.543A.841.841 0 0 1 4 58c-.4 0-.743-.286-.8-.629l-.4-1.543a.875.875 0 0 0-.629-.628L.63 54.8A.841.841 0 0 1 0 54c0-.4.286-.743.629-.8l1.542-.4a.876.876 0 0 0 .629-.629l.4-1.543A.841.841 0 0 1 4 50c.4 0 .743.286.8.628l.4 1.543a.876.876 0 0 0 .629.629l1.542.4c.4.114.629.457.629.8 0 .4-.286.743-.629.8ZM126.5 52c-.825 0-1.5-.675-1.5-1.5s.675-1.5 1.5-1.5 1.5.675 1.5 1.5-.675 1.5-1.5 1.5ZM23 70c-1.1 0-2-.9-2-2s.9-2 2-2 2 .9 2 2-.9 2-2 2Z" opacity=".2"/>
  <path fill="url(#Shield-Check-128_svg__a)" d="M91.175 51c2.392 0 4.488-1.694 4.676-4.08.099-1.25.133-2.514.1-3.787l-.254-9.748C95.535 27.13 90.25 22.51 84.358 22.75H80l-1.066.693a3.936 3.936 0 0 1-1.693-.91l-.2-.196-2.374-2.502a11.871 11.871 0 0 0-8.663-3.71L66 16.12h-3.523c-.124.59-.676 3.354-1.221 8H71.84l1.573 1.658.224.228a8.94 8.94 0 0 0 8.938 2.148l.278-.087 6.359 1.673a5.87 5.87 0 0 1 1.487 3.775l.253 9.748A31.167 31.167 0 0 1 90.184 51h.99Z"/>
  <path fill="url(#Shield-Check-128_svg__b)" d="M67 74.375V71c0-11.012 8.9-19.944 19.9-19.998L89 45l-1-16-6-4-8 1-12-7-12 7-11.5.5-3.5 5v20L44.5 69 62 77.5l5-3.125Z"/>
  <path fill="url(#Shield-Check-128_svg__c)" d="M62.104 77.061c.456-.043.903-.19 1.304-.44L67 74.374V71c0-11.012 8.9-19.943 19.899-19.998l1.9-5.43c.132-.378.188-.779.163-1.178l-.87-13.91a3 3 0 0 0-1.329-2.31l-3.835-2.556a3.002 3.002 0 0 0-2.036-.48l-5.885.736a3.001 3.001 0 0 1-1.884-.386l-9.612-5.607a2.998 2.998 0 0 0-1.629-.404c-1.222 7.872-3.521 28.65.222 57.584Z"/>
  <path fill="url(#Shield-Check-128_svg__d)" d="M55.941 78.54a12.405 12.405 0 0 0 7.441 1.286C65.676 79.507 67 77.267 67 74.952v-1.83l-1.92.994a7.408 7.408 0 0 1-6.828-.01l-4.531-2.36a31.186 31.186 0 0 1-16.768-28.332l.213-9.834c.085-3.923 3.93-6.656 7.662-5.446a8.891 8.891 0 0 0 9.07-2.212l2.708-2.745.262-.252a6.913 6.913 0 0 1 9.672.351l2.373 2.502.224.227a8.94 8.94 0 0 0 8.938 2.149l.432-.136c3.752-1.177 7.59 1.565 7.692 5.496l.253 9.748.01.56a31.16 31.16 0 0 1-.79 7.223c.44-.028.882-.045 1.328-.045h3.794c.458-2.352.688-4.768.668-7.218l-.01-.65-.255-9.748c-.189-7.252-7.266-12.308-14.187-10.136l-.432.135a3.94 3.94 0 0 1-3.837-.85l-.2-.197-2.374-2.502c-4.561-4.806-12.149-4.956-16.895-.39l-.224.222-2.71 2.744a3.892 3.892 0 0 1-3.968.968c-6.92-2.243-14.045 2.82-14.203 10.093L32 41.185v4.873A36.187 36.187 0 0 0 51.411 76.18l4.53 2.36Z"/>
  <path fill="url(#Shield-Check-128_svg__e)" d="M85.673 51.046c.439-.029.881-.046 1.327-.046h3.794a36.19 36.19 0 0 0 .668-7.218l-.01-.65-.255-9.747c-.188-7.252-7.265-12.31-14.187-10.137l-.432.136a3.94 3.94 0 0 1-3.837-.85l-.2-.197-2.374-2.502a11.86 11.86 0 0 0-7.7-3.673c-.104.508-.439 2.2-.826 4.963a6.886 6.886 0 0 1 4.899 2.151l2.373 2.502.224.228a8.94 8.94 0 0 0 8.938 2.148l.432-.135c3.753-1.178 7.59 1.564 7.692 5.496l.253 9.748.01.56a31.154 31.154 0 0 1-.79 7.223Zm-23.185 28.87a12.43 12.43 0 0 0 1.517-.194c1.896-.362 2.995-2.21 2.995-4.14v-2.46l-1.92.993a7.398 7.398 0 0 1-3.242.825c.197 1.632.413 3.29.65 4.976Z"/>
  <path fill="#21C000" d="M87 87c8.837 0 16-7.163 16-16s-7.163-16-16-16-16 7.163-16 16 7.163 16 16 16Z"/>
  <path fill="#fff" d="M95.885 68.31c.52-.52.52-1.365 0-1.885l-1.859-1.86a1.333 1.333 0 0 0-1.885 0l-6.538 6.54c-.52.52-1.365.52-1.885 0l-1.86-1.86a1.333 1.333 0 0 0-1.884 0l-1.859 1.86c-.52.52-.52 1.364 0 1.884l5.603 5.603c.52.52 1.364.52 1.885 0L95.885 68.31Z"/>
  <path fill="#CCC" d="M108.501 59c.298 0 .595.12.823.354.454.468.454 1.23 0 1.698l-2.333 2.4a1.145 1.145 0 0 1-1.65 0 1.226 1.226 0 0 1 0-1.698l2.332-2.4c.228-.234.525-.354.823-.354h.005Zm-1.166 10.798h3.499c.641 0 1.166.54 1.166 1.2 0 .66-.525 1.2-1.166 1.2h-3.499c-.641 0-1.166-.54-1.166-1.2 0-.66.525-1.2 1.166-1.2Zm-1.982 8.754c.227-.234.525-.354.822-.354h.006c.297 0 .595.12.822.354l2.333 2.4c.454.467.454 1.23 0 1.697a1.146 1.146 0 0 1-1.651 0l-2.332-2.4a1.226 1.226 0 0 1 0-1.697Z"/>
  <defs>
    <linearGradient id="Shield-Check-128_svg__a" x1="78.61" x2="78.61" y1="79.94" y2="16.12" gradientUnits="userSpaceOnUse">
      <stop stop-color="#999"/>
      <stop offset="1" stop-color="#AAA"/>
    </linearGradient>
    <linearGradient id="Shield-Check-128_svg__b" x1="62" x2="62" y1="77.5" y2="19" gradientUnits="userSpaceOnUse">
      <stop stop-color="#fff"/>
      <stop offset="1" stop-color="#F2F2F2"/>
    </linearGradient>
    <linearGradient id="Shield-Check-128_svg__c" x1="74.513" x2="74.513" y1="19.475" y2="77.061" gradientUnits="userSpaceOnUse">
      <stop stop-color="#F2F2F2"/>
      <stop offset="1" stop-color="#EEE"/>
    </linearGradient>
    <linearGradient id="Shield-Check-128_svg__d" x1="61.732" x2="61.732" y1="79.944" y2="16.122" gradientUnits="userSpaceOnUse">
      <stop stop-color="#DDD"/>
      <stop offset=".461" stop-color="#DDD"/>
      <stop offset="1" stop-color="#DDD"/>
    </linearGradient>
    <linearGradient id="Shield-Check-128_svg__e" x1="76.552" x2="76.552" y1="79.916" y2="16.162" gradientUnits="userSpaceOnUse">
      <stop stop-color="#CCC"/>
      <stop offset="1" stop-color="#CCC"/>
    </linearGradient>
  </defs>
</svg>
