<svg width="96" height="73" viewBox="0 0 96 73" fill="none" xmlns="http://www.w3.org/2000/svg">
<g opacity="0.2">
<path d="M78.55 24.3L79.9 23.95C80.15 23.9 80.4 23.65 80.45 23.4L80.8 22.05C80.9 21.7 81.2 21.5 81.5 21.5C81.85 21.5 82.15 21.75 82.2 22.05L82.55 23.4C82.6 23.65 82.85 23.9 83.1 23.95L84.45 24.3C84.8 24.4 85 24.7 85 25C85 25.35 84.75 25.65 84.45 25.7L83.1 26.05C82.85 26.1 82.6 26.35 82.55 26.6L82.2 27.95C82.1 28.3 81.8 28.5 81.5 28.5C81.15 28.5 80.85 28.25 80.8 27.95L80.45 26.6C80.4 26.35 80.15 26.1 79.9 26.05L78.55 25.7C78.2 25.6 78 25.3 78 25C78 24.65 78.25 24.35 78.55 24.3Z" fill="#888888"/>
<path d="M11.7071 21.1L13.4428 20.65C13.7643 20.5857 14.0857 20.2643 14.15 19.9429L14.6 18.2071C14.7286 17.7571 15.1143 17.5 15.5 17.5C15.95 17.5 16.3357 17.8214 16.4 18.2071L16.85 19.9429C16.9143 20.2643 17.2357 20.5857 17.5572 20.65L19.2929 21.1C19.7429 21.2286 20 21.6143 20 22C20 22.45 19.6786 22.8357 19.2929 22.9L17.5572 23.35C17.2357 23.4143 16.9143 23.7357 16.85 24.0571L16.4 25.7929C16.2714 26.2429 15.8857 26.5 15.5 26.5C15.05 26.5 14.6643 26.1786 14.6 25.7929L14.15 24.0571C14.0857 23.7357 13.7643 23.4143 13.4428 23.35L11.7071 22.9C11.2571 22.7714 11 22.3857 11 22C11 21.55 11.3214 21.1643 11.7071 21.1Z" fill="#CCCCCC"/>
<path d="M0.549988 37.3L1.89999 36.95C2.14999 36.9 2.40001 36.65 2.45001 36.4L2.79999 35.05C2.89999 34.7 3.2 34.5 3.5 34.5C3.85 34.5 4.15001 34.75 4.20001 35.05L4.54999 36.4C4.59999 36.65 4.85001 36.9 5.10001 36.95L6.45001 37.3C6.80001 37.4 7 37.7 7 38C7 38.35 6.75001 38.65 6.45001 38.7L5.10001 39.05C4.85001 39.1 4.59999 39.35 4.54999 39.6L4.20001 40.95C4.10001 41.3 3.8 41.5 3.5 41.5C3.15 41.5 2.84999 41.25 2.79999 40.95L2.45001 39.6C2.40001 39.35 2.14999 39.1 1.89999 39.05L0.549988 38.7C0.199988 38.6 0 38.3 0 38C0 37.65 0.249988 37.35 0.549988 37.3Z" fill="#CCCCCC"/>
<path d="M94.5 36.5C93.675 36.5 93 35.825 93 35C93 34.175 93.675 33.5 94.5 33.5C95.325 33.5 96 34.175 96 35C96 35.825 95.325 36.5 94.5 36.5Z" fill="#CCCCCC"/>
<path d="M19.5 46.5C18.675 46.5 18 45.825 18 45C18 44.175 18.675 43.5 19.5 43.5C20.325 43.5 21 44.175 21 45C21 45.825 20.325 46.5 19.5 46.5Z" fill="#888888"/>
</g>
<path fill-rule="evenodd" clip-rule="evenodd" d="M45.0902 56.3618C45.509 56.469 46.0044 56.5724 46.5578 56.6455C47.0417 56.7094 47.5699 56.7501 48.1301 56.7501C50.7093 56.7501 52.1057 56.3371 52.1154 56.3342C54.6813 55.6435 57.0729 54.3016 59.1074 52.4111C61.1419 50.5206 62.7654 48.1316 63.8539 45.4266C65.2452 41.1508 65.6132 36.5383 64.921 32.0519C64.7975 30.4807 64.849 28.9046 65.0706 27.3595C65.2931 25.8072 65.6873 24.286 66.2477 22.8324C64.7708 23.4306 63.4348 24.3706 62.3195 25.5783C61.8875 26.046 61.4886 26.5539 61.1275 27.0977C60.8955 27.447 60.6791 27.811 60.4795 28.1888C59.6964 29.7503 59.1597 31.4527 58.8932 33.2205C58.9194 30.9658 58.5515 28.7296 57.8128 26.6385C57.7348 26.4178 57.6527 26.1986 57.5665 25.9813C56.7848 23.6457 56.0451 22.0354 55.3924 20.6142L55.3923 20.6142L55.3923 20.6142C54.7204 19.1514 54.1406 17.889 53.7017 16.2424C53.3969 14.5385 53.4162 12.7979 53.7421 11.1299C54.0082 9.7684 54.4786 8.4553 55.1438 7.25014C53.8232 7.54479 52.5328 7.97409 51.288 8.53069C49.7468 9.21986 48.2755 10.1042 46.9034 11.1698C44.4232 13.096 42.3199 15.5736 40.7231 18.4499C39.4076 21.1214 38.7065 23.4454 38.3574 25.3598C38.2988 25.681 38.2501 25.9907 38.2101 26.2886C38.2027 26.3434 38.1956 26.3978 38.1889 26.4517C37.7875 29.6477 38.3869 31.4351 38.3869 31.4351C37.3423 30.3494 36.4907 29.0503 35.8773 27.607C35.8678 27.5845 35.8583 27.562 35.8489 27.5395C35.5951 26.8485 35.4111 26.1302 35.2989 25.3981C35.181 24.6287 35.1424 23.844 35.1855 23.0596C34.1568 24.3348 33.2895 25.7543 32.6025 27.277C31.9475 28.7288 31.4563 30.2744 31.145 31.8787C30.5073 35.1658 30.6475 38.5837 31.5515 41.7907C32.4509 45.0367 34.0121 48.0011 36.1103 50.4473C37.8547 52.481 39.9301 54.1098 42.2185 55.2482C42.6826 55.4791 43.1554 55.6898 43.636 55.8797C43.636 55.8797 44.1836 56.1298 45.0902 56.3618ZM42.5914 59.0439C39.3197 57.7417 36.3618 55.601 33.9514 52.7908C31.5303 49.9681 29.7285 46.5479 28.6896 42.803C27.6289 39.0354 27.4649 35.0204 28.214 31.159C28.9637 27.2949 30.6016 23.7199 32.964 20.7914C33.82 19.7303 35.1784 19.393 36.3519 19.9502C36.4635 20.0031 36.571 20.0631 36.6743 20.1294C37.0604 19.0757 37.5302 17.9693 38.0988 16.8145C38.1242 16.7629 38.1508 16.712 38.1786 16.662C39.9924 13.3949 42.3817 10.5805 45.1991 8.39236C48.0165 6.20424 51.2023 4.68882 54.5602 3.93962C55.7322 3.67811 56.9305 4.22401 57.6105 5.3293C58.2906 6.43459 58.3227 7.8885 57.6924 9.03049C56.639 10.9391 56.2566 13.2198 56.6171 15.4264C56.9598 16.6599 57.4042 17.6424 58.0575 19.0648L58.0654 19.082C58.6066 20.2601 59.2449 21.6499 59.9221 23.5009C61.4005 21.7952 63.2123 20.4748 65.2315 19.6569C66.3575 19.2008 67.6167 19.5412 68.4355 20.5231C69.2544 21.5049 69.4762 22.9403 69 24.1754C68.096 26.52 67.7184 29.0783 67.8997 31.6249C68.6506 36.6467 68.2276 41.8031 66.6711 46.5868C66.6456 46.6651 66.6175 46.7424 66.5869 46.8185C65.3099 49.992 63.4051 52.7951 61.0179 55.0133C58.636 57.2266 55.8368 58.7991 52.8334 59.6112L52.8246 59.6137C52.7996 59.6207 52.7691 59.629 52.7331 59.6385C52.661 59.6574 52.5669 59.6809 52.4513 59.7072C52.22 59.7598 51.9023 59.8238 51.5017 59.8857C50.7002 60.0096 49.5673 60.1251 48.1301 60.1251C46.5444 60.1251 45.1791 59.8597 44.2074 59.5954C43.7183 59.4623 43.3196 59.327 43.0314 59.2197C42.8871 59.1659 42.7697 59.1189 42.6817 59.0823C42.647 59.0678 42.6169 59.055 42.5914 59.0439Z" fill="url(#paint0_linear_1669_16072)"/>
<path d="M43.636 55.8795C40.7856 54.7536 38.2084 52.8934 36.1103 50.4472C34.0121 48.001 32.4509 45.0366 31.5515 41.7906C30.6475 38.5836 30.5073 35.1656 31.145 31.8785C31.7828 28.5914 33.176 25.5504 35.1855 23.0595C35.1015 24.5901 35.3283 26.1222 35.8489 27.5394C36.4643 29.0096 37.3261 30.3323 38.3869 31.4349C38.3869 31.4349 36.7429 26.533 40.7231 18.4497C42.3199 15.5735 44.4232 13.0959 46.9034 11.1697C49.3836 9.24346 52.188 7.90949 55.1438 7.25C53.6637 9.93155 53.148 13.1475 53.7017 16.2422C54.567 19.4885 55.9802 21.2415 57.5665 25.9811C58.4694 28.2575 58.9221 30.7276 58.8932 33.2204C59.1597 31.4526 59.6964 29.7501 60.4795 28.1886C61.7923 25.7044 63.8314 23.811 66.2477 22.8322C65.1294 25.7328 64.6733 28.9021 64.921 32.0517C65.6132 36.5382 65.2452 41.1506 63.8539 45.4265C62.7654 48.1315 61.1419 50.5205 59.1074 52.411C57.0729 54.3015 54.6813 55.6434 52.1154 56.334C53.8063 55.5872 55.2455 54.2604 56.229 52.5415C57.2126 50.8227 57.6906 48.7991 57.5953 46.7575C57.3123 44.3451 56.2926 42.1186 54.7112 40.4596C53.7017 46.5951 50.8176 47.3093 50.8176 47.3093C51.9347 44.6643 52.6279 41.8179 52.8653 38.9014C53.0221 37.0563 52.8655 35.1944 52.4039 33.4152C51.8497 30.2281 50.2547 27.3904 47.9334 25.4617C48.1008 27.1629 47.9623 28.8845 47.5263 30.5242C47.0903 32.1638 46.3656 33.688 45.3954 35.0059C43.0592 39.0962 39.1079 42.1152 39.281 48.2183C39.3565 49.8101 39.7975 51.3527 40.5608 52.6955C41.324 54.0382 42.3836 55.1353 43.636 55.8795Z" fill="url(#paint1_linear_1669_16072)"/>
<path d="M56.2289 52.5417C55.2454 54.2605 53.8062 55.5874 52.1153 56.3342C52.1153 56.3342 50.7182 56.7502 48.13 56.7502C45.5418 56.7502 43.636 55.8797 43.636 55.8797C42.3835 55.1355 41.324 54.0384 40.5607 52.6956C39.7974 51.3529 39.3564 49.8103 39.2809 48.2185C39.1078 42.1154 43.0591 39.0964 45.3953 35.006C46.3655 33.6881 47.0902 32.164 47.5262 30.5243C47.9622 28.8847 48.1007 27.163 47.9333 25.4619C50.2546 27.3906 51.8496 30.2283 52.4038 33.4153C52.8654 35.1946 53.022 37.0565 52.8652 38.9016C52.6279 41.8181 51.9346 44.6645 50.8175 47.3095C50.8175 47.3095 53.7016 46.5953 54.7111 40.4598C56.2926 42.1188 57.3122 44.3453 57.5952 46.7576C57.6905 48.7993 57.2125 50.8229 56.2289 52.5417Z" fill="url(#paint2_linear_1669_16072)"/>
<defs>
<linearGradient id="paint0_linear_1669_16072" x1="48.4998" y1="7.25014" x2="48.4998" y2="56.7501" gradientUnits="userSpaceOnUse">
<stop stop-color="#D7320F"/>
<stop offset="1" stop-color="#EF4926"/>
</linearGradient>
<linearGradient id="paint1_linear_1669_16072" x1="42.5985" y1="6.20137" x2="60.2918" y2="55.7904" gradientUnits="userSpaceOnUse">
<stop stop-color="#FFAA2C" stop-opacity="0.8"/>
<stop offset="1" stop-color="#FFAF38"/>
</linearGradient>
<linearGradient id="paint2_linear_1669_16072" x1="45.3935" y1="24.7935" x2="58.5373" y2="54.6394" gradientUnits="userSpaceOnUse">
<stop stop-color="#FFE565" stop-opacity="0.9"/>
<stop offset="1" stop-color="#FFE565"/>
</linearGradient>
</defs>
</svg>
