<svg width="48" height="48" viewBox="0 0 48 48" fill="none" xmlns="http://www.w3.org/2000/svg">
<path d="M36.6637 25.5C37.4434 25.5 38.1672 25.0515 38.4146 24.3121C38.7956 23.1735 39 21.9687 39 20.7219C39 13.6958 32.5081 8 24.5 8H22.5V8.12003C15.4383 8.97481 10 14.2912 10 20.7219C10 24.8874 12.2817 28.5852 15.8083 30.9059C16.2312 31.1842 16.3786 31.742 16.1159 32.1723L14.0844 35.5H12.75V37H14.75C14.8155 36.9991 14.8831 36.991 14.952 36.9749C17.2516 36.4399 21.123 35.4987 24.668 34.4463C25.2296 34.2796 25.6275 33.7934 25.7604 33.2229C26.7911 28.7972 30.7605 25.5 35.5 25.5H36.6637Z" fill="#399F29"/>
<path d="M35.9426 25.5C36.6245 24.0248 37 22.4118 37 20.7219C37 13.6958 30.5081 8 22.5 8C14.4919 8 8 13.6958 8 20.7219C8 24.8874 10.2817 28.5852 13.8083 30.9059C14.2312 31.1842 14.3786 31.742 14.1159 32.1723L11.9922 35.6512C11.5802 36.326 12.1769 37.1553 12.952 36.9749C15.8732 36.2952 21.3312 34.9602 25.4341 33.5742C25.6017 33.5176 25.7245 33.3755 25.765 33.2032C26.8029 28.7874 30.7675 25.5 35.5 25.5H35.9426Z" fill="#63C853"/>
<path d="M46.2507 29.5C46.3994 29.5 46.5481 29.56 46.6618 29.677C46.8892 29.9109 46.8892 30.2919 46.6618 30.5258L45.4956 31.7256C45.2682 31.9596 44.898 31.9596 44.6706 31.7256C44.4431 31.4917 44.4431 31.1107 44.6706 30.8768L45.8367 29.677C45.9505 29.56 46.0991 29.5 46.2478 29.5H46.2507Z" fill="#CCCCCC"/>
<path d="M45.6676 34.8991H47.4169C47.7376 34.8991 48 35.1691 48 35.499C48 35.829 47.7376 36.0989 47.4169 36.0989H45.6676C45.3469 36.0989 45.0845 35.829 45.0845 35.499C45.0845 35.1691 45.3469 34.8991 45.6676 34.8991Z" fill="#CCCCCC"/>
<path d="M44.6765 39.2759C44.7902 39.1589 44.9389 39.0989 45.0876 39.0989H45.0905C45.2392 39.0989 45.3879 39.1589 45.5016 39.2759L46.6678 40.4757C46.8952 40.7096 46.8952 41.0906 46.6678 41.3245C46.4403 41.5585 46.0701 41.5585 45.8427 41.3245L44.6765 40.1247C44.4491 39.8908 44.4491 39.5098 44.6765 39.2759Z" fill="#CCCCCC"/>
<rect x="27.5" y="27.5" width="16" height="16" rx="8" fill="#DE5833"/>
<path fill-rule="evenodd" clip-rule="evenodd" d="M35.4994 28.522C31.6456 28.522 28.5215 31.6461 28.5215 35.4999C28.5215 39.3536 31.6456 42.4778 35.4994 42.4778C39.3532 42.4778 42.4773 39.3536 42.4773 35.4999C42.4773 31.6461 39.3532 28.522 35.4994 28.522ZM29.4774 35.4999C29.4774 32.174 32.1735 29.4778 35.4994 29.4778C38.8252 29.4778 41.5214 32.174 41.5214 35.4999C41.5214 38.4461 39.4057 40.8981 36.6107 41.4195C35.8843 39.7517 35.1275 37.7544 35.8682 37.5337C34.9865 35.9441 35.1648 34.8999 36.9947 35.2217L36.9975 35.222C37.2026 35.2454 37.3581 35.263 37.4067 35.2321C37.6545 35.0744 37.5008 31.6111 35.3493 31.1407C33.3694 28.6912 31.4849 31.4851 32.4408 31.2939C33.2055 31.1027 33.7734 31.2792 33.747 31.2868C30.3695 31.7127 31.9399 37.0341 32.8068 39.9714C32.926 40.3754 33.032 40.7343 33.1099 41.0292C30.9727 40.1044 29.4774 37.9767 29.4774 35.4999Z" fill="white"/>
<path d="M38.1455 40.5446C38.1243 40.6818 38.0769 40.7734 37.9927 40.7862C37.833 40.8106 37.1188 40.6471 36.7128 40.4927C36.6667 40.705 35.5785 40.9061 35.4063 40.6208C35.0114 40.9622 34.2549 41.4573 34.0967 41.3536C33.7938 41.1553 33.5089 39.6282 33.7369 39.3054C34.0832 38.9906 34.8112 39.3332 35.3221 39.5141C35.4952 39.2212 36.3338 39.1102 36.5079 39.3506C36.9666 39.0019 37.7321 38.5102 37.8067 38.5998C38.1788 39.0483 38.2258 40.1154 38.1452 40.5449L38.1455 40.5446Z" fill="#4CBA3C"/>
<path fill-rule="evenodd" clip-rule="evenodd" d="M34.2647 35.9347C34.4208 34.8271 36.5132 35.1736 37.4489 35.0491C38.1308 34.9701 38.6368 34.8023 38.9738 34.6715C39.7477 34.3536 39.8795 34.669 39.5011 35.1641C38.4328 36.4307 36.0566 35.5088 35.6312 36.1638C35.5068 36.3578 35.603 36.8145 36.5803 36.9585C37.901 37.1525 38.9858 36.7245 39.1197 36.9832C38.8186 38.3657 33.8048 37.895 34.2641 35.935L34.2647 35.9347Z" fill="#FFCC33"/>
<path d="M36.9359 32.7397C36.7975 32.4399 36.0859 32.442 35.9499 32.7281C35.9375 32.7872 35.987 32.7716 36.0814 32.7419C36.2469 32.6898 36.5501 32.5944 36.8993 32.7812C36.9269 32.7931 36.9535 32.7644 36.9359 32.7397Z" fill="#14307E"/>
<path d="M33.4588 32.8117C33.3267 32.8022 33.1122 32.7867 32.935 32.8852C32.6749 32.9959 32.591 33.1152 32.5407 33.197C32.5221 33.2272 32.4502 33.2241 32.4502 33.1884C32.4679 32.7113 33.2768 32.4813 33.571 32.7778C33.6067 32.8223 33.5543 32.8186 33.4588 32.8117Z" fill="#14307E"/>
<path d="M36.6825 34.4111C36.1381 34.4084 36.1381 33.5692 36.6825 33.5664C37.2268 33.5692 37.2268 34.4084 36.6825 34.4111Z" fill="#14307E"/>
<path d="M33.9238 34.2809C33.913 34.9283 32.9642 34.9283 32.9534 34.2809C32.9564 33.6367 33.9208 33.637 33.9238 34.2809Z" fill="#14307E"/>
<path d="M15.5 23C16.8807 23 18 21.8807 18 20.5C18 19.1193 16.8807 18 15.5 18C14.1193 18 13 19.1193 13 20.5C13 21.8807 14.1193 23 15.5 23Z" fill="white"/>
<path d="M25 20.5C25 21.8807 23.8807 23 22.5 23C21.1193 23 20 21.8807 20 20.5C20 19.1193 21.1193 18 22.5 18C23.8807 18 25 19.1193 25 20.5Z" fill="white"/>
<path d="M32 20.5C32 21.8807 30.8807 23 29.5 23C28.1193 23 27 21.8807 27 20.5C27 19.1193 28.1193 18 29.5 18C30.8807 18 32 19.1193 32 20.5Z" fill="white"/>
</svg>
